HIERARCHY
ROOT Hips
{
    OFFSET 0.000000 97.120003 0.000000
    CHANNELS 6 Xposition Yposition Zposition Yrotation Xrotation Zrotation
    JOINT RightUpLeg
    {
        OFFSET -11.000000 -0.000000 0.000000
        CHANNELS 3 Yrotation Xrotation Zrotation
        JOINT RightLeg
        {
            OFFSET 0.000000 -45.062000 0.000000
            CHANNELS 3 Yrotation Xrotation Zrotation
            JOINT RightFoot
            {
                OFFSET 0.000000 -42.057999 0.000000
                CHANNELS 3 Yrotation Xrotation Zrotation
                End Site
                {
                    OFFSET 0.000000 -10.000000 15.120000
                }
            }
        }
    }
    JOINT LeftUpLeg
    {
        OFFSET 11.000000 -0.000000 0.000000
        CHANNELS 3 Yrotation Xrotation Zrotation
        JOINT LeftLeg
        {
            OFFSET 0.000000 -45.062000 0.000000
            CHANNELS 3 Yrotation Xrotation Zrotation
            JOINT LeftFoot
            {
                OFFSET 0.000000 -42.057999 0.000000
                CHANNELS 3 Yrotation Xrotation Zrotation
                End Site
                {
                    OFFSET 0.000000 -10.000000 15.120000
                }
            }
        }
    }
    JOINT Spine
    {
        OFFSET 0.000000 8.120000 0.000000
        CHANNELS 3 Yrotation Xrotation Zrotation
        JOINT Spine1
        {
            OFFSET 0.000000 17.980000 0.000000
            CHANNELS 3 Yrotation Xrotation Zrotation
            JOINT Spine2
            {
                OFFSET 0.000000 12.760000 0.000000
                CHANNELS 3 Yrotation Xrotation Zrotation
                JOINT Neck
                {
                    OFFSET 0.000000 19.139999 0.000000
                    CHANNELS 3 Yrotation Xrotation Zrotation
                    JOINT Neck1
                    {
                        OFFSET 0.000000 4.250000 0.000000
                        CHANNELS 3 Yrotation Xrotation Zrotation
                        JOINT Head
                        {
                            OFFSET 0.000000 4.250000 0.000000
                            CHANNELS 3 Yrotation Xrotation Zrotation
                            End Site
                            {
                                OFFSET 0.000000 19.120001 0.000000
                            }
                        }
                    }
                }
                JOINT RightShoulder
                {
                    OFFSET -2.900000 13.340000 0.000000
                    CHANNELS 3 Yrotation Xrotation Zrotation
                    JOINT RightArm
                    {
                        OFFSET -16.100000 0.000000 0.000000
                        CHANNELS 3 Yrotation Xrotation Zrotation
                        JOINT RightForeArm
                        {
                            OFFSET -28.000000 0.000000 0.000000
                            CHANNELS 3 Yrotation Xrotation Zrotation
                            JOINT RightHand
                            {
                                OFFSET -26.000000 0.000000 0.000000
                                CHANNELS 3 Yrotation Xrotation Zrotation
                                JOINT RightHandThumb1
                                {
                                    OFFSET -1.937000 -0.484000 2.518000
                                    CHANNELS 3 Yrotation Xrotation Zrotation
                                    JOINT RightHandThumb2
                                    {
                                        OFFSET -3.872000 0.000000 0.000000
                                        CHANNELS 3 Yrotation Xrotation Zrotation
                                        JOINT RightHandThumb3
                                        {
                                            OFFSET -2.690000 0.000000 0.000000
                                            CHANNELS 3 Yrotation Xrotation Zrotation
                                            End Site
                                            {
                                                OFFSET -2.537000 0.000000 0.000000
                                            }
                                        }
                                    }
                                }
                                JOINT RightInHandIndex
                                {
                                    OFFSET -3.389000 0.535000 2.080000
                                    CHANNELS 3 Yrotation Xrotation Zrotation
                                    JOINT RightHandIndex1
                                    {
                                        OFFSET -5.485000 -0.096000 1.051000
                                        CHANNELS 3 Yrotation Xrotation Zrotation
                                        JOINT RightHandIndex2
                                        {
                                            OFFSET -3.806000 0.000000 0.000000
                                            CHANNELS 3 Yrotation Xrotation Zrotation
                                            JOINT RightHandIndex3
                                            {
                                                OFFSET -2.158000 0.000000 0.000000
                                                CHANNELS 3 Yrotation Xrotation Zrotation
                                                End Site
                                                {
                                                    OFFSET -1.898000 0.000000 0.000000
                                                }
                                            }
                                        }
                                    }
                                }
                                JOINT RightInHandMiddle
                                {
                                    OFFSET -3.556000 0.544000 0.796000
                                    CHANNELS 3 Yrotation Xrotation Zrotation
                                    JOINT RightHandMiddle1
                                    {
                                        OFFSET -5.441000 -0.088000 0.330000
                                        CHANNELS 3 Yrotation Xrotation Zrotation
                                        JOINT RightHandMiddle2
                                        {
                                            OFFSET -4.153000 0.000000 0.000000
                                            CHANNELS 3 Yrotation Xrotation Zrotation
                                            JOINT RightHandMiddle3
                                            {
                                                OFFSET -2.603000 0.000000 0.000000
                                                CHANNELS 3 Yrotation Xrotation Zrotation
                                                End Site
                                                {
                                                    OFFSET -2.076000 0.000000 0.000000
                                                }
                                            }
                                        }
                                    }
                                }
                                JOINT RightInHandRing
                                {
                                    OFFSET -3.539000 0.566000 -0.136000
                                    CHANNELS 3 Yrotation Xrotation Zrotation
                                    JOINT RightHandRing1
                                    {
                                        OFFSET -4.873000 -0.023000 -0.504000
                                        CHANNELS 3 Yrotation Xrotation Zrotation
                                        JOINT RightHandRing2
                                        {
                                            OFFSET -3.619000 0.000000 0.000000
                                            CHANNELS 3 Yrotation Xrotation Zrotation
                                            JOINT RightHandRing3
                                            {
                                                OFFSET -2.511000 0.000000 0.000000
                                                CHANNELS 3 Yrotation Xrotation Zrotation
                                                End Site
                                                {
                                                    OFFSET -1.952000 0.000000 0.000000
                                                }
                                            }
                                        }
                                    }
                                }
                                JOINT RightInHandPinky
                                {
                                    OFFSET -3.324000 0.494000 -1.264000
                                    CHANNELS 3 Yrotation Xrotation Zrotation
                                    JOINT RightHandPinky1
                                    {
                                        OFFSET -4.354000 -0.023000 -1.147000
                                        CHANNELS 3 Yrotation Xrotation Zrotation
                                        JOINT RightHandPinky2
                                        {
                                            OFFSET -2.898000 0.000000 0.000000
                                            CHANNELS 3 Yrotation Xrotation Zrotation
                                            JOINT RightHandPinky3
                                            {
                                                OFFSET -1.831000 0.000000 0.000000
                                                CHANNELS 3 Yrotation Xrotation Zrotation
                                                End Site
                                                {
                                                    OFFSET -1.730000 0.000000 0.000000
                                                }
                                            }
                                        }
                                    }
                                }
                            }
                        }
                    }
                }
                JOINT LeftShoulder
                {
                    OFFSET 2.900000 13.340000 0.000000
                    CHANNELS 3 Yrotation Xrotation Zrotation
                    JOINT LeftArm
                    {
                        OFFSET 16.100000 0.000000 0.000000
                        CHANNELS 3 Yrotation Xrotation Zrotation
                        JOINT LeftForeArm
                        {
                            OFFSET 28.000000 0.000000 0.000000
                            CHANNELS 3 Yrotation Xrotation Zrotation
                            JOINT LeftHand
                            {
                                OFFSET 26.000000 0.000000 0.000000
                                CHANNELS 3 Yrotation Xrotation Zrotation
                                JOINT LeftHandThumb1
                                {
                                    OFFSET 1.937000 -0.484000 2.518000
                                    CHANNELS 3 Yrotation Xrotation Zrotation
                                    JOINT LeftHandThumb2
                                    {
                                        OFFSET 3.872000 0.000000 0.000000
                                        CHANNELS 3 Yrotation Xrotation Zrotation
                                        JOINT LeftHandThumb3
                                        {
                                            OFFSET 2.690000 0.000000 0.000000
                                            CHANNELS 3 Yrotation Xrotation Zrotation
                                            End Site
                                            {
                                                OFFSET 2.537000 0.000000 0.000000
                                            }
                                        }
                                    }
                                }
                                JOINT LeftInHandIndex
                                {
                                    OFFSET 3.389000 0.535000 2.080000
                                    CHANNELS 3 Yrotation Xrotation Zrotation
                                    JOINT LeftHandIndex1
                                    {
                                        OFFSET 5.485000 -0.096000 1.051000
                                        CHANNELS 3 Yrotation Xrotation Zrotation
                                        JOINT LeftHandIndex2
                                        {
                                            OFFSET 3.806000 0.000000 0.000000
                                            CHANNELS 3 Yrotation Xrotation Zrotation
                                            JOINT LeftHandIndex3
                                            {
                                                OFFSET 2.158000 0.000000 0.000000
                                                CHANNELS 3 Yrotation Xrotation Zrotation
                                                End Site
                                                {
                                                    OFFSET 1.898000 0.000000 0.000000
                                                }
                                            }
                                        }
                                    }
                                }
                                JOINT LeftInHandMiddle
                                {
                                    OFFSET 3.556000 0.544000 0.796000
                                    CHANNELS 3 Yrotation Xrotation Zrotation
                                    JOINT LeftHandMiddle1
                                    {
                                        OFFSET 5.441000 -0.088000 0.330000
                                        CHANNELS 3 Yrotation Xrotation Zrotation
                                        JOINT LeftHandMiddle2
                                        {
                                            OFFSET 4.153000 0.000000 0.000000
                                            CHANNELS 3 Yrotation Xrotation Zrotation
                                            JOINT LeftHandMiddle3
                                            {
                                                OFFSET 2.603000 0.000000 0.000000
                                                CHANNELS 3 Yrotation Xrotation Zrotation
                                                End Site
                                                {
                                                    OFFSET 2.076000 0.000000 0.000000
                                                }
                                            }
                                        }
                                    }
                                }
                                JOINT LeftInHandRing
                                {
                                    OFFSET 3.539000 0.566000 -0.136000
                                    CHANNELS 3 Yrotation Xrotation Zrotation
                                    JOINT LeftHandRing1
                                    {
                                        OFFSET 4.873000 -0.023000 -0.504000
                                        CHANNELS 3 Yrotation Xrotation Zrotation
                                        JOINT LeftHandRing2
                                        {
                                            OFFSET 3.619000 0.000000 0.000000
                                            CHANNELS 3 Yrotation Xrotation Zrotation
                                            JOINT LeftHandRing3
                                            {
                                                OFFSET 2.511000 0.000000 0.000000
                                                CHANNELS 3 Yrotation Xrotation Zrotation
                                                End Site
                                                {
                                                    OFFSET 1.952000 0.000000 0.000000
                                                }
                                            }
                                        }
                                    }
                                }
                                JOINT LeftInHandPinky
                                {
                                    OFFSET 3.324000 0.494000 -1.264000
                                    CHANNELS 3 Yrotation Xrotation Zrotation
                                    JOINT LeftHandPinky1
                                    {
                                        OFFSET 4.354000 -0.023000 -1.147000
                                        CHANNELS 3 Yrotation Xrotation Zrotation
                                        JOINT LeftHandPinky2
                                        {
                                            OFFSET 2.898000 0.000000 0.000000
                                            CHANNELS 3 Yrotation Xrotation Zrotation
                                            JOINT LeftHandPinky3
                                            {
                                                OFFSET 1.831000 0.000000 0.000000
                                                CHANNELS 3 Yrotation Xrotation Zrotation
                                                End Site
                                                {
                                                    OFFSET 1.730000 0.000000 0.000000
                                                }
                                            }
                                        }
                                    }
                                }
                            }
                        }
                    }
                }
            }
        }
    }
}
MOTION
Frames: 4
Frame Time: 0.011111
0.000000 97.119995 0.000000 0.000000 0.000000 0.000000 0.000000 0.000000 0.000000 0.000000 0.000000 0.000000 0.000000 0.000000 0.000000 0.000000 0.000000 0.000000 0.000000 0.000000 0.000000 0.000000 0.000000 0.000000 0.000000 0.000000 0.000000 0.000000 0.000000 0.000000 0.000000 0.000000 0.000000 0.000000 0.000000 0.000000 0.000000 0.000000 0.000000 0.000000 0.000000 0.000000 0.000000 0.000000 0.000000 0.000000 0.000000 0.000000 0.000000 0.000000 0.000000 0.000000 0.000000 0.000000 0.000000 0.000000 0.000000 0.000000 0.000000 0.000000 0.000000 0.000000 0.000000 0.000000 0.000000 0.000000 0.000000 0.000000 0.000000 0.000000 0.000000 0.000000 0.000000 0.000000 0.000000 0.000000 0.000000 0.000000 0.000000 0.000000 0.000000 0.000000 0.000000 0.000000 0.000000 0.000000 0.000000 0.000000 0.000000 0.000000 0.000000 0.000000 0.000000 0.000000 0.000000 0.000000 0.000000 0.000000 0.000000 0.000000 0.000000 0.000000 0.000000 0.000000 0.000000 0.000000 0.000000 0.000000 0.000000 0.000000 0.000000 0.000000 0.000000 0.000000 0.000000 0.000000 0.000000 0.000000 0.000000 0.000000 0.000000 0.000000 0.000000 0.000000 0.000000 0.000000 0.000000 0.000000 0.000000 0.000000 0.000000 0.000000 0.000000 0.000000 0.000000 0.000000 0.000000 0.000000 0.000000 0.000000 0.000000 0.000000 0.000000 0.000000 0.000000 0.000000 0.000000 0.000000 0.000000 0.000000 0.000000 0.000000 0.000000 0.000000 0.000000 0.000000 0.000000 0.000000 0.000000 0.000000 0.000000 0.000000 0.000000 0.000000 0.000000 0.000000 0.000000 0.000000 0.000000 0.000000 0.000000 0.000000 0.000000 0.000000 0.000000 0.000000 0.000000 0.000000 0.000000 0.000000
0.069130 96.984589 -0.114624 178.967392 -177.043655 -179.245575 176.481613 174.015091 177.491104 166.186935 178.703217 -179.268768 9.521603 -3.976141 0.054944 177.127365 175.710815 -177.556061 8.426309 1.358315 -0.233792 0.772655 -2.194873 -4.239030 0.244161 3.617785 0.136095 0.243834 3.547888 0.216202 1.116546 2.564815 0.349238 0.000003 -4.510206 0.068672 0.000003 -5.261919 0.071125 179.302582 -176.117035 -179.910034 5.608336 0.474689 0.097960 12.239362 -9.574160 83.000168 177.353806 -176.115479 179.704132 175.734955 174.238632 173.082779 51.013031 40.960232 10.873388 180.000000 -179.999985 -171.539902 0.000010 -0.000001 5.634418 0.000000 -0.000001 0.000000 14.999999 -0.000000 30.134544 180.000000 -180.000000 -155.344467 0.000001 -0.000000 17.258873 0.000000 -0.000001 0.000000 0.000001 -0.000000 32.580818 0.000003 -0.000003 32.580837 0.000000 0.000002 21.698837 0.000000 -0.000001 0.000000 170.000000 180.000000 -148.170807 180.000000 179.999985 -148.170807 0.000000 0.000002 21.198238 0.000000 -0.000001 0.000000 160.000015 -179.999985 -162.241348 180.000000 179.999985 -153.362015 180.000000 179.999985 -162.259109 5.009789 -1.391802 -2.035278 167.936539 -170.673004 96.805435 1.415541 2.410027 0.659745 7.848172 11.581225 2.209860 127.550629 126.785606 165.800446 179.999985 179.999985 173.467377 179.999985 179.999985 175.649277 180.000000 180.000000 -180.000000 165.000015 179.999985 153.850220 180.000000 -180.000000 158.604706 0.000000 0.000000 -14.976703 180.000000 180.000000 -180.000000 0.000000 0.000000 -29.995951 0.000001 0.000002 -29.995941 180.000000 -180.000000 160.022705 180.000000 180.000000 -180.000000 9.999992 -0.000001 -28.878098 0.000000 0.000000 -28.878092 0.000002 0.000000 -19.232811 180.000000 180.000000 -180.000000 19.999998 0.000004 -23.395214 0.000003 0.000001 -35.092869 0.000000 -0.000002 -23.371838
0.074711 96.964424 -0.118991 178.976852 -177.032425 -179.241440 176.450699 174.007706 177.479019 166.199493 178.699066 -179.267853 9.531360 -3.979474 0.055804 177.113937 175.707565 -177.564667 8.434137 1.367559 -0.231195 0.766893 -2.197602 -4.238607 0.244863 3.624797 0.136184 0.244094 3.554753 0.216034 1.117741 2.569867 0.349224 0.000004 -4.495377 0.077021 0.000003 -5.244551 0.079773 179.315643 -176.129913 -179.905884 5.603772 0.450800 0.085705 12.264623 -9.552173 83.013672 177.340759 -176.111130 179.693222 175.740555 174.238113 173.097748 50.999245 40.959286 10.864100 0.000017 -0.000003 8.462642 0.000002 0.000008 5.636115 0.000000 -0.000000 0.000000 15.000004 -0.000003 30.129791 0.000003 -0.000003 24.651651 180.000000 -179.999985 -162.743851 0.000000 -0.000000 0.000000 0.000001 -0.000008 32.585491 180.000000 179.999985 -147.414520 0.000005 -0.000001 21.701937 0.000000 -0.000000 0.000000 170.000000 180.000000 -148.171539 0.000000 -0.000000 31.828453 180.000000 179.999985 -158.802246 0.000000 -0.000000 0.000000 160.000000 179.999985 -162.241455 0.000000 -0.000000 26.637798 180.000000 179.999985 -162.259216 5.011266 -1.409212 -2.024305 167.928467 -170.678436 96.784355 1.413823 2.416586 0.658752 7.850600 11.571495 2.216155 127.533905 126.792915 165.780090 0.000007 0.000002 -6.535536 0.000006 -0.000010 -4.352659 180.000000 -180.000000 180.000000 165.000015 -180.000000 153.841629 0.000000 0.000004 -21.402287 180.000000 -180.000000 165.018387 180.000000 -180.000000 180.000000 180.000000 -179.999985 150.002899 0.000006 0.000005 -29.997078 180.000000 -180.000000 160.021957 180.000000 -180.000000 180.000000 10.000010 0.000001 -28.881697 180.000000 -179.999985 151.118317 0.000001 0.000004 -19.235203 180.000000 -180.000000 180.000000 20.000008 0.000000 -23.400625 180.000000 -179.999985 144.899109 180.000000 179.999985 156.622787
0.079480 96.959534 -0.125803 178.988174 -177.027527 -179.240631 176.433319 174.007080 177.472778 166.199280 178.695251 -179.266968 9.538402 -3.978924 0.057296 177.070206 175.712799 -177.572098 8.468728 1.378441 -0.227001 0.762605 -2.198831 -4.239676 0.244821 3.630810 0.136730 0.244063 3.560634 0.216843 1.117479 2.574075 0.350381 0.000004 -4.481661 0.086455 0.000004 -5.228608 0.089543 179.323044 -176.141739 -179.900665 5.600949 0.423681 0.065539 12.296113 -9.533550 83.028175 177.328796 -176.081573 179.693222 175.738602 174.227264 173.093338 50.981518 40.955780 10.836702 179.999985 -179.999985 -171.541245 0.000006 -0.000009 5.633556 0.000000 0.000000 -0.000003 14.999999 0.000006 30.121346 180.000000 180.000000 -155.355255 180.000000 179.999985 -162.748688 0.000000 0.000000 -0.000003 180.000000 180.000000 -147.419571 0.000002 0.000000 32.580463 180.000000 180.000000 -158.301437 0.000000 0.000000 -0.000003 170.000000 179.999985 -148.167374 0.000000 -0.000000 31.832613 0.000002 -0.000001 21.200523 0.000000 0.000000 -0.000003 160.000015 -179.999985 -162.235184 0.000002 0.000001 26.647255 0.000004 0.000003 17.747070 5.012305 -1.424535 -2.012983 167.931015 -170.676392 96.762314 1.415168 2.429360 0.655124 7.853579 11.565265 2.221454 127.564163 126.779404 165.808640 180.000000 -179.999985 173.465607 0.000007 -0.000003 -4.351905 0.000002 0.000001 0.000000 165.000000 179.999985 153.843445 0.000001 -0.000003 -21.400818 180.000000 -179.999985 165.019424 0.000002 0.000001 0.000000 0.000001 0.000004 -30.007456 180.000000 -179.999985 149.992569 180.000000 180.000000 160.015030 0.000002 0.000001 0.000000 10.000007 -0.000002 -28.889866 0.000002 -0.000001 -28.889849 0.000000 -0.000002 -19.240635 0.000002 0.000001 0.000000 20.000006 0.000003 -23.405628 0.000002 0.000004 -35.108414 0.000002 -0.000003 -23.382229
